<svg width="238" height="371" viewBox="0 0 238 371" fill="none" xmlns="http://www.w3.org/2000/svg">
<g filter="url(#filter0_d_59_240)">
<path d="M107.103 350.523C87.2759 336.163 72.653 314.741 67.944 289.788H4V27.3074C38.4504 43.5506 62.9871 79.5681 65.9612 116.763L75.6271 190.446L70.9181 189.739C60.5086 189.739 51.5862 198.92 51.5862 208.101C51.5862 216.576 58.5259 223.874 67.4483 225.757L79.097 228.346C98.4289 193.741 109.334 159.842 109.334 126.414C109.334 96.2821 105.121 66.3852 104.625 35.7821C104.625 22.1284 110.078 9.65175 119 0C127.922 9.88716 133.375 22.1284 133.375 35.7821C133.375 66.3852 128.666 96.5175 128.666 126.414C128.666 159.607 139.571 193.741 158.903 228.346L170.552 225.757C179.474 223.874 186.414 216.576 186.414 208.101C186.414 198.92 177.491 189.739 167.082 189.739L162.373 190.446L172.039 116.763C176.748 79.5681 199.55 43.5506 234 27.3074V289.788H170.056C165.347 314.506 151.468 336.87 130.897 350.523C126.187 353.819 121.974 357.821 119.248 363C116.026 357.586 111.813 353.819 107.103 350.523ZM34.2371 199.156C36.9634 189.268 44.6465 180.794 54.0646 175.615L46.3815 114.879C43.6552 96.0467 35.4763 79.0973 23.084 65.2082V198.92H34.2371V199.156ZM66.7047 271.426C66.7047 262.245 68.1918 253.77 70.1746 245.296L61.2521 243.412C48.1164 239.41 37.9547 229.759 34.4849 217.282H23.5797V271.426H66.7047ZM109.086 271.426C109.086 260.362 100.164 250.475 88.5151 249.298C86.5323 256.36 85.0452 263.658 85.0452 271.426H109.086ZM109.086 289.788H87.7716C91.2414 304.148 98.6767 317.095 109.086 328.395V289.788ZM139.323 233.054C131.144 218.695 123.461 203.628 118.752 188.091C114.043 203.864 106.36 218.695 98.181 233.054C106.36 234.938 113.3 240.117 118.752 246.002C124.205 240.117 131.144 234.938 139.323 233.054ZM152.459 271.426C152.459 263.658 150.972 256.36 148.989 249.298C137.341 250.71 128.418 260.362 128.418 271.426H152.459ZM149.733 289.788H128.418V328.395C138.828 317.095 146.263 304.148 149.733 289.788ZM214.42 271.426V217.282H203.515C200.045 229.759 189.884 239.41 176.748 243.412L167.825 245.296C169.808 253.77 171.295 262.245 171.295 271.426H214.42ZM214.42 199.156V65.4436C202.028 79.0973 193.106 96.0467 191.123 115.115L183.44 175.85C193.106 181.029 200.541 189.504 203.267 199.391H214.42V199.156Z" fill="black"/>
<path d="M130.61 350.114C126.095 353.274 122.001 357.098 119.223 362.002C116.016 356.901 111.918 353.283 107.393 350.116C87.6623 335.825 73.1185 314.511 68.4353 289.695L68.3584 289.288H67.944H4.5V28.0994C38.4125 44.4243 62.5234 80.0427 65.4628 116.802L65.4638 116.815L65.4655 116.828L75.0451 189.853L70.9923 189.245L70.9554 189.239H70.9181C65.5653 189.239 60.6113 191.599 56.9996 195.119C53.3905 198.638 51.0862 203.351 51.0862 208.101C51.0862 216.86 58.2417 224.324 67.3432 226.246C67.3438 226.246 67.3444 226.246 67.345 226.246L78.9885 228.834L79.3519 228.915L79.5335 228.59C98.8928 193.936 109.834 159.953 109.834 126.414C109.834 111.327 108.779 96.3028 107.664 81.2379C107.6 80.3714 107.536 79.5049 107.471 78.6381C106.416 64.431 105.358 50.1823 105.125 35.7783C105.126 22.4539 110.372 10.255 118.996 0.745107C127.629 10.4808 132.875 22.4568 132.875 35.7821C132.875 51.0611 131.699 66.2257 130.522 81.3242L130.501 81.598C129.331 96.5979 128.166 111.534 128.166 126.414C128.166 159.717 139.107 193.936 158.467 228.59L158.648 228.915L159.012 228.834L170.655 226.246C170.656 226.246 170.656 226.246 170.657 226.246C179.758 224.324 186.914 216.86 186.914 208.101C186.914 203.351 184.61 198.638 181 195.119C177.389 191.599 172.435 189.239 167.082 189.239H167.045L167.008 189.245L162.955 189.853L172.535 116.828L172.535 116.825C177.193 80.0317 199.625 44.4179 233.5 28.0996V289.288H170.056H169.642L169.565 289.694C164.878 314.293 151.068 336.535 130.62 350.107L130.61 350.114ZM34.2371 199.223L34.7191 199.289C37.4019 189.559 44.9783 181.182 54.3056 176.053L54.6033 175.889L54.5607 175.552L46.8776 114.817L46.8763 114.808C44.1354 95.8743 35.9123 78.8349 23.4571 64.8753L22.584 63.8968V65.2082V198.92V199.42H23.084H34.2371V199.223ZM66.7047 271.926H67.2047V271.426C67.2047 262.3 68.6827 253.867 70.6614 245.41L70.7778 244.912L70.2778 244.806L61.3769 242.928C48.3939 238.965 38.3833 229.434 34.9666 217.148L34.8648 216.782H34.4849H23.5797H23.0797V217.282V271.426V271.926H23.5797H66.7047ZM109.086 271.926H109.586V271.426C109.586 260.097 100.461 250.002 88.5654 248.8L88.1473 248.758L88.0337 249.162C86.0447 256.247 84.5452 263.594 84.5452 271.426V271.926H85.0452H109.086ZM109.586 289.788V289.288H109.086H87.7716H87.1364L87.2855 289.905C90.7781 304.359 98.26 317.381 108.718 328.734L109.586 329.676V328.395V289.788ZM139.435 233.542L140.09 233.391L139.758 232.807C131.584 218.457 123.923 203.429 119.231 187.946L118.749 186.356L118.273 187.948C113.581 203.664 105.921 218.455 97.7466 232.807L97.414 233.391L98.0688 233.542C106.114 235.394 112.971 240.498 118.385 246.342L118.752 246.738L119.119 246.342C124.533 240.498 131.39 235.394 139.435 233.542ZM152.459 271.926H152.959V271.426C152.959 263.594 151.46 256.247 149.471 249.162L149.355 248.75L148.929 248.801C137.05 250.242 127.918 260.089 127.918 271.426V271.926H128.418H152.459ZM150.219 289.905L150.368 289.288H149.733H128.418H127.918V289.788V328.395V329.676L128.786 328.734C139.244 317.381 146.726 304.359 150.219 289.905ZM214.42 271.926H214.92V271.426V217.282V216.782H214.42H203.515H203.135L203.033 217.148C199.617 229.433 189.606 238.965 176.623 242.928L167.722 244.806L167.222 244.912L167.339 245.41C169.317 253.867 170.795 262.3 170.795 271.426V271.926H171.295H214.42ZM214.92 65.4436V64.1487L214.05 65.1075C201.602 78.8225 192.623 95.866 190.626 115.058C190.626 115.06 190.626 115.061 190.626 115.063L182.944 175.787L182.9 176.129L183.203 176.291C192.77 181.416 200.101 189.79 202.785 199.524L202.886 199.891H203.267H214.42H214.92V199.391V199.156V65.4436Z" stroke="black"/>
</g>
<defs>
<filter id="filter0_d_59_240" x="0" y="0" width="238" height="371" filterUnits="userSpaceOnUse" color-interpolation-filters="sRGB">
<feFlood flood-opacity="0" result="BackgroundImageFix"/>
<feColorMatrix in="SourceAlpha" type="matrix" values="0 0 0 0 0 0 0 0 0 0 0 0 0 0 0 0 0 0 127 0" result="hardAlpha"/>
<feOffset dy="4"/>
<feGaussianBlur stdDeviation="2"/>
<feComposite in2="hardAlpha" operator="out"/>
<feColorMatrix type="matrix" values="0 0 0 0 0 0 0 0 0 0 0 0 0 0 0 0 0 0 0.25 0"/>
<feBlend mode="normal" in2="BackgroundImageFix" result="effect1_dropShadow_59_240"/>
<feBlend mode="normal" in="SourceGraphic" in2="effect1_dropShadow_59_240" result="shape"/>
</filter>
</defs>
</svg>
