<svg width="24" height="39" viewBox="0 0 24 39" fill="none" xmlns="http://www.w3.org/2000/svg">
<path d="M6.18164 29.5168C6.18164 29.5603 6.18164 29.6039 6.18164 29.6474H8.22766C8.22766 29.6039 8.22766 29.5168 8.22766 29.4733C8.22766 29.4297 8.22766 29.3862 8.22766 29.3427C8.22766 28.6461 8.40179 27.9932 8.40179 27.732C8.92418 23.7705 11.5361 22.1163 11.5796 22.0728C11.7538 22.2469 14.2787 24.2929 14.7575 27.7755C14.7575 28.0367 14.9316 28.6897 14.9316 29.3862C14.9316 29.4297 14.9316 29.4733 14.9316 29.5168C14.9316 29.5603 14.9316 29.6039 14.9316 29.6039H16.9777C16.9777 29.5603 16.9777 29.5168 16.9777 29.4733C16.9777 25.9907 15.4976 23.5529 14.1045 21.9857H14.1481C12.9292 19.4608 12.7115 16.5877 12.8421 13.8016C12.9727 11.1026 13.0597 7.62003 13.1468 4.92103C13.1903 3.44093 12.8421 2.09143 11.8408 0.916054C11.7973 0.82899 11.5796 0.65486 11.5361 0.611328C11.5361 0.611328 11.2749 0.82899 11.2314 0.916054C10.2301 2.09143 9.88189 3.48446 9.92542 4.92103C10.0125 7.62003 10.0996 11.1026 10.2301 13.8016C10.3607 16.5877 10.2301 19.4608 8.96771 21.9857C7.61821 23.5529 6.18164 25.9907 6.18164 29.5168Z" fill="white"/>
<path d="M23.2027 4.48535C23.1592 4.48535 23.1157 4.48535 23.0721 4.48535C22.9851 4.52888 22.898 4.57242 22.8109 4.61595C21.592 5.356 20.5473 6.27018 19.6766 7.40202C17.8918 9.62217 17.0647 12.1906 16.8035 15.0202C16.6729 16.5003 16.4552 18.0239 16.2811 19.504C16.194 20.2441 16.107 21.0276 16.0634 21.7677C16.8035 21.6371 17.3694 21.8983 17.8918 22.3771C18.5883 22.9866 18.6754 23.9878 18.1094 24.6844C17.8483 24.9891 17.4565 25.2503 17.0647 25.4679C17.0647 25.4679 17.0211 25.4679 17.0211 25.5115C17.2388 26.0774 17.4129 26.7304 17.5 27.4269C17.5435 27.4269 17.5871 27.3834 17.6306 27.3834C19.1978 26.8174 20.1555 25.7727 20.4167 24.0749C20.6343 22.6383 19.8507 21.1582 18.5012 20.3747C18.2836 20.2441 18.1965 20.1135 18.24 19.8523C18.4577 18.198 18.6754 16.5438 18.806 14.846C18.9366 13.3224 19.3719 11.8858 20.0684 10.4493C20.3731 9.7963 21.2873 8.49033 21.2873 8.49033C21.2873 8.49033 21.2873 23.1172 21.2873 30.3871H13.3644V32.1284H14.6704C14.2786 34.0438 13.3209 35.3062 12.5808 36.0463V30.0824C12.7114 29.6035 13.0597 28.994 14.1045 28.6893C14.148 28.6893 14.1915 28.6458 14.2786 28.6458C14.2351 28.3846 14.1915 28.1234 14.1915 27.9928C14.148 27.601 14.0609 27.2092 13.9739 26.8174C13.7997 26.861 13.6256 26.9045 13.5386 26.948C12.8856 27.2092 11.8408 28.0363 11.6231 28.254C11.4055 28.0799 10.3607 27.2092 9.70771 26.948C9.62064 26.9045 9.44651 26.861 9.27239 26.8174C9.18532 27.1657 9.09826 27.5575 9.05472 27.9928C9.05472 28.1234 9.01119 28.3411 8.96766 28.6458C9.01119 28.6458 9.05472 28.6893 9.14179 28.6893C10.1866 28.994 10.5348 29.6035 10.6654 30.0824V36.0898C9.92537 35.3498 8.96766 34.0873 8.57587 32.2154H9.92537V30.4741H1.91542V8.53386C1.91542 8.53386 2.8296 9.83983 3.13433 10.4928C3.78731 11.8858 4.22264 13.3224 4.39677 14.8896C4.52736 16.5438 4.74502 18.198 4.96269 19.8958C5.00622 20.157 4.91915 20.2876 4.70149 20.4182C3.35199 21.2018 2.56841 22.6819 2.78607 24.1184C3.00373 25.7727 4.00497 26.861 5.57214 27.4269C5.61567 27.4269 5.6592 27.4704 5.70273 27.4704C5.83333 26.7739 5.96393 26.1644 6.18159 25.555C6.18159 25.555 6.18159 25.555 6.13806 25.555C5.74627 25.3373 5.35448 25.1197 5.09328 24.7714C4.52736 24.0749 4.61443 23.0737 5.31094 22.4642C5.7898 22.0289 6.39925 21.7242 7.1393 21.8547C7.05224 21.0712 7.0087 20.3311 6.92164 19.5911C6.74751 18.111 6.52985 16.5873 6.39925 15.1072C6.18159 12.2776 5.31094 9.70923 3.52612 7.48908C2.65547 6.35724 1.6107 5.44306 0.391791 4.70301C0.304726 4.65948 0.217662 4.61595 0.130597 4.57242C0.0870647 4.57242 0.0435323 4.57242 0 4.57242V32.259H6.44278C7.35696 36.8299 11.5796 38.963 11.5796 38.963C11.5796 38.963 15.8022 36.9605 16.8035 32.2154H23.2027V4.48535Z" fill="white"/>
</svg>
