<svg width="22" height="16" viewBox="0 0 22 16" fill="none" xmlns="http://www.w3.org/2000/svg">
<path fill-rule="evenodd" clip-rule="evenodd" d="M19.6078 0.780762C20.5501 1.03455 21.2931 1.77734 21.5468 2.71985C22.0181 4.44128 21.9999 8.02954 21.9999 8.02954C21.9999 8.02954 21.9999 11.5994 21.5469 13.321C21.2931 14.2633 20.5503 15.0063 19.6078 15.26C17.8862 15.7131 11 15.7131 11 15.7131C11 15.7131 4.1317 15.7131 2.39215 15.2419C1.44969 14.9883 0.706801 14.2451 0.453017 13.3029C0 11.5994 0 8.01135 0 8.01135C0 8.01135 0 4.44128 0.453017 2.71985C0.706633 1.77759 1.46782 1.01636 2.39198 0.762695C4.11358 0.30957 10.9998 0.30957 10.9998 0.30957C10.9998 0.30957 17.8862 0.30957 19.6078 0.780762ZM14.5337 8.0116L8.80725 11.3098V4.71338L14.5337 8.0116Z" fill="white"/>
</svg>
