<svg width="16" height="19" viewBox="0 0 16 19" fill="none" xmlns="http://www.w3.org/2000/svg">
<path fill-rule="evenodd" clip-rule="evenodd" d="M0.000732422 6C0.000732422 3.17163 0.000732422 1.75732 0.879412 0.878662C1.75809 0 3.17231 0 6.00073 0H10.0007C12.8292 0 14.2434 0 15.1221 0.878662C16.0007 1.75732 16.0007 3.17163 16.0007 6V10C16.0007 12.8284 16.0007 14.2427 15.1221 15.1213C14.2434 16 12.8292 16 10.0007 16H6.00073L3.00073 19V15.9238C2.02565 15.828 1.3693 15.6112 0.879412 15.1213C0.000732422 14.2427 0.000732422 12.8284 0.000732422 10V6ZM4.00122 9C4.55351 9 5.00122 8.55225 5.00122 8C5.00122 7.44775 4.55351 7 4.00122 7C3.44894 7 3.00122 7.44775 3.00122 8C3.00122 8.55225 3.44894 9 4.00122 9ZM9.00049 8C9.00049 8.55225 8.55277 9 8.00049 9C7.4482 9 7.00049 8.55225 7.00049 8C7.00049 7.44775 7.4482 7 8.00049 7C8.55277 7 9.00049 7.44775 9.00049 8ZM12.0007 9C12.553 9 13.0007 8.55225 13.0007 8C13.0007 7.44775 12.553 7 12.0007 7C11.4484 7 11.0007 7.44775 11.0007 8C11.0007 8.55225 11.4484 9 12.0007 9Z" fill="white"/>
</svg>
